<?xml version="1.0" encoding="UTF-8" standalone="no"?><!DOCTYPE svg PUBLIC "-//W3C//DTD SVG 1.1//EN" "http://www.w3.org/Graphics/SVG/1.1/DTD/svg11.dtd"><svg width="100%" height="100%" viewBox="0 0 1857 1857" version="1.1" xmlns="http://www.w3.org/2000/svg" xmlns:xlink="http://www.w3.org/1999/xlink" xml:space="preserve" xmlns:serif="http://www.serif.com/" style="fill-rule:evenodd;clip-rule:evenodd;stroke-linecap:round;stroke-linejoin:round;stroke-miterlimit:1.5;"><g><path d="M1768.131,342.635l0,1171.067c0,140.423 -114.006,254.428 -254.428,254.428l-1171.067,0c-140.423,0 -254.428,-114.006 -254.428,-254.428l0,-1171.067c0,-140.423 114.006,-254.428 254.428,-254.428l1171.067,0c140.423,0 254.428,114.006 254.428,254.428Z" style="fill:#b7c9c1;fill-opacity:0;stroke:#5f7f6e;stroke-width:20.83px;"/><g><g><path d="M1125.531,1806.263l-79.846,-355.245c99.007,-22.253 189.661,-72.16 261.416,-143.915c71.755,-71.755 121.662,-162.409 143.915,-261.416l355.245,79.846c-37.373,166.277 -121.189,318.525 -241.697,439.034c-120.509,120.509 -272.757,204.325 -439.034,241.697Z" style="fill:#faf9f6;stroke:#5f7f6e;stroke-width:20.83px;"/><path d="M730.807,50.076l79.846,355.245c-99.007,22.253 -189.661,72.16 -261.416,143.915c-71.755,71.755 -121.662,162.409 -143.915,261.416l-355.245,-79.846c37.373,-166.277 121.189,-318.525 241.697,-439.034c120.509,-120.509 272.757,-204.325 439.034,-241.697Z" style="fill:#faf9f6;stroke:#5f7f6e;stroke-width:20.83px;"/><path d="M1806.263,730.807l-355.245,79.846c-22.253,-99.007 -72.16,-189.661 -143.915,-261.416c-71.755,-71.755 -162.409,-121.662 -261.416,-143.915l79.846,-355.245c166.277,37.373 318.525,121.189 439.034,241.697c120.509,120.509 204.325,272.757 241.697,439.034Z" style="fill:#faf9f6;stroke:#5f7f6e;stroke-width:20.83px;"/><path d="M50.076,1125.531l355.245,-79.846c22.253,99.007 72.16,189.661 143.915,261.416c71.755,71.755 162.409,121.662 261.416,143.915l-79.846,355.245c-166.277,-37.373 -318.525,-121.189 -439.034,-241.697c-120.509,-120.509 -204.325,-272.757 -241.697,-439.034Z" style="fill:#faf9f6;stroke:#5f7f6e;stroke-width:20.83px;"/></g><g><path d="M1823.583,1129.424l-372.492,-83.722c17.394,-77.39 17.394,-157.676 0,-235.066l372.492,-83.722c29.785,132.517 29.785,269.993 -0,402.51Z" style="fill:#b7c9c1;stroke:#5f7f6e;stroke-width:20.83px;"/><path d="M726.914,1823.583l83.722,-372.492c77.39,17.394 157.676,17.394 235.066,0l83.722,372.492c-132.517,29.785 -269.993,29.785 -402.51,-0Z" style="fill:#b7c9c1;stroke:#5f7f6e;stroke-width:20.83px;"/><path d="M1129.424,32.755l-83.722,372.492c-77.39,-17.394 -157.676,-17.394 -235.066,-0l-83.722,-372.492c132.517,-29.785 269.993,-29.785 402.51,0Z" style="fill:#b7c9c1;stroke:#5f7f6e;stroke-width:20.83px;"/><path d="M32.755,726.914l372.492,83.722c-17.394,77.39 -17.394,157.676 -0,235.066l-372.492,83.722c-29.785,-132.517 -29.785,-269.993 0,-402.51Z" style="fill:#b7c9c1;stroke:#5f7f6e;stroke-width:20.83px;"/></g></g></g></svg>